<svg width="24" height="24" viewBox="0 0 24 24" fill="none" xmlns="http://www.w3.org/2000/svg">
<g id="call_black_24dp (1) 1" clip-path="url(#clip0_6_2027)">
<path id="Vector" d="M18.175 17.3167C17.15 17.3167 16.1583 17.15 15.2333 16.85C14.9417 16.75 14.6167 16.825 14.3917 17.05L13.0833 18.6917C10.725 17.5667 8.51667 15.4417 7.34167 13L8.96667 11.6167C9.19167 11.3833 9.25833 11.0583 9.16667 10.7667C8.85833 9.84167 8.7 8.85 8.7 7.825C8.7 7.375 8.325 7 7.875 7H4.99167C4.54167 7 4 7.2 4 7.825C4 15.5667 10.4417 22 18.175 22C18.7667 22 19 21.475 19 21.0167V18.1417C19 17.6917 18.625 17.3167 18.175 17.3167Z" fill="#3B4A54"/>
</g>
<defs>
<clipPath id="clip0_6_2027">
<rect width="24" height="24" fill="white"/>
</clipPath>
</defs>
</svg>
